# xmcd
#
# Track frame offsets: 
#        150
#        14940
#        29437
#        55307
#        72685
#        133232
#        160035
#        195727
#        216567
#        229220
#        244245
#        286537
#        304062
#
# Disc length: 4597 seconds
#
# Revision: 1
# Processed by: cddbd v1.5.2PL0 Copyright (c) Steve Scherf et al.
# Submitted via: ExactAudioCopy v1.0b3
#
DISCID=cc11f30d
DTITLE=Miles Davis - The Essential Miles Davis [Disc 1]
DYEAR=2009
DGENRE=Jazz
TTITLE0=Now's The Time
TTITLE1=Jeru
TTITLE2=Compulsion
TTITLE3=Tempus Fugit
TTITLE4=Walkin'
TTITLE5='Round Midnight
TTITLE6=Bye Bye Blackbird
TTITLE7=New Rhumba
TTITLE8=Generique
TTITLE9=Summertime
TTITLE10=So What
TTITLE11=The Pan Piper
TTITLE12=Someday My Prince Will Come
EXTD=
EXTT0=
EXTT1=
EXTT2=
EXTT3=
EXTT4=
EXTT5=
EXTT6=
EXTT7=
EXTT8=
EXTT9=
EXTT10=
EXTT11=
EXTT12=
PLAYORDER=
